<mxfile host="app.diagrams.net" agent="Mozilla/5.0 (Windows NT 10.0; Win64; x64) AppleWebKit/537.36 (KHTML, like Gecko) Chrome/127.0.0.0 Safari/537.36" version="24.7.7">
  <diagram name="Page-1" id="e7e014a7-5840-1c2e-5031-d8a46d1fe8dd">
    <mxGraphModel dx="1591" dy="857" grid="1" gridSize="10" guides="1" tooltips="1" connect="1" arrows="1" fold="1" page="1" pageScale="1" pageWidth="1169" pageHeight="826" background="none" math="0" shadow="0">
      <root>
        <mxCell id="0" />
        <mxCell id="1" parent="0" />
        <mxCell id="2" value="Thread 1" style="swimlane;whiteSpace=wrap" parent="1" vertex="1">
          <mxGeometry x="164.5" y="128" width="280" height="782" as="geometry" />
        </mxCell>
        <mxCell id="5" value="" style="ellipse;shape=startState;" parent="2" vertex="1">
          <mxGeometry x="100" y="52" width="30" height="30" as="geometry" />
        </mxCell>
        <mxCell id="6" value="" style="edgeStyle=elbowEdgeStyle;elbow=horizontal;verticalAlign=bottom;endArrow=open;endSize=8;endFill=1;rounded=0" parent="2" source="5" target="7" edge="1">
          <mxGeometry x="100" y="40" as="geometry">
            <mxPoint x="115" y="110" as="targetPoint" />
          </mxGeometry>
        </mxCell>
        <mxCell id="7" value="input username&#xa;dan password" style="" parent="2" vertex="1">
          <mxGeometry x="60" y="112" width="110" height="50" as="geometry" />
        </mxCell>
        <mxCell id="t7t6zWDUxTfeYxyZlF2c-57" value="user mengklik&amp;nbsp;&lt;div&gt;barang&amp;nbsp;&lt;/div&gt;" style="rounded=0;whiteSpace=wrap;html=1;" parent="2" vertex="1">
          <mxGeometry x="85" y="328" width="110" height="58" as="geometry" />
        </mxCell>
        <mxCell id="t7t6zWDUxTfeYxyZlF2c-69" style="edgeStyle=orthogonalEdgeStyle;rounded=0;orthogonalLoop=1;jettySize=auto;html=1;entryX=0.5;entryY=0;entryDx=0;entryDy=0;" parent="2" source="t7t6zWDUxTfeYxyZlF2c-58" target="t7t6zWDUxTfeYxyZlF2c-61" edge="1">
          <mxGeometry relative="1" as="geometry" />
        </mxCell>
        <mxCell id="t7t6zWDUxTfeYxyZlF2c-58" value="user membeli barang" style="rounded=0;whiteSpace=wrap;html=1;" parent="2" vertex="1">
          <mxGeometry x="82.5" y="432" width="115" height="38" as="geometry" />
        </mxCell>
        <mxCell id="t7t6zWDUxTfeYxyZlF2c-59" value="" style="endArrow=classic;html=1;rounded=0;exitX=0.5;exitY=1;exitDx=0;exitDy=0;entryX=0.5;entryY=0;entryDx=0;entryDy=0;" parent="2" source="t7t6zWDUxTfeYxyZlF2c-57" target="t7t6zWDUxTfeYxyZlF2c-58" edge="1">
          <mxGeometry width="50" height="50" relative="1" as="geometry">
            <mxPoint x="305.5" y="432" as="sourcePoint" />
            <mxPoint x="355.5" y="382" as="targetPoint" />
          </mxGeometry>
        </mxCell>
        <mxCell id="t7t6zWDUxTfeYxyZlF2c-73" style="edgeStyle=orthogonalEdgeStyle;rounded=0;orthogonalLoop=1;jettySize=auto;html=1;entryX=0.5;entryY=0;entryDx=0;entryDy=0;" parent="2" source="t7t6zWDUxTfeYxyZlF2c-61" target="t7t6zWDUxTfeYxyZlF2c-71" edge="1">
          <mxGeometry relative="1" as="geometry" />
        </mxCell>
        <mxCell id="t7t6zWDUxTfeYxyZlF2c-61" value="memilih opsi&lt;div&gt;pembayaran,&lt;/div&gt;&lt;div&gt;lokasi&lt;/div&gt;" style="rounded=0;whiteSpace=wrap;html=1;" parent="2" vertex="1">
          <mxGeometry x="88.75" y="512" width="102.5" height="48" as="geometry" />
        </mxCell>
        <mxCell id="t7t6zWDUxTfeYxyZlF2c-71" value="user membayar&lt;div&gt;barang&lt;/div&gt;" style="rounded=0;whiteSpace=wrap;html=1;" parent="2" vertex="1">
          <mxGeometry x="100" y="592" width="80" height="48" as="geometry" />
        </mxCell>
        <mxCell id="t7t6zWDUxTfeYxyZlF2c-89" style="edgeStyle=orthogonalEdgeStyle;rounded=0;orthogonalLoop=1;jettySize=auto;html=1;entryX=0.5;entryY=0;entryDx=0;entryDy=0;" parent="2" source="t7t6zWDUxTfeYxyZlF2c-81" target="t7t6zWDUxTfeYxyZlF2c-88" edge="1">
          <mxGeometry relative="1" as="geometry" />
        </mxCell>
        <mxCell id="t7t6zWDUxTfeYxyZlF2c-81" value="menunggu paket datang" style="rounded=0;whiteSpace=wrap;html=1;" parent="2" vertex="1">
          <mxGeometry x="80" y="672" width="120" height="38" as="geometry" />
        </mxCell>
        <mxCell id="t7t6zWDUxTfeYxyZlF2c-88" value="" style="ellipse;shape=doubleEllipse;whiteSpace=wrap;html=1;aspect=fixed;" parent="2" vertex="1">
          <mxGeometry x="124" y="732" width="32" height="32" as="geometry" />
        </mxCell>
        <mxCell id="3" value="Thread 2" style="swimlane;whiteSpace=wrap" parent="1" vertex="1">
          <mxGeometry x="444" y="128" width="280" height="782" as="geometry" />
        </mxCell>
        <mxCell id="t7t6zWDUxTfeYxyZlF2c-45" style="edgeStyle=orthogonalEdgeStyle;rounded=0;orthogonalLoop=1;jettySize=auto;html=1;exitX=0.75;exitY=1;exitDx=0;exitDy=0;" parent="3" source="15" edge="1">
          <mxGeometry relative="1" as="geometry">
            <mxPoint x="149.05172413793116" y="102" as="targetPoint" />
          </mxGeometry>
        </mxCell>
        <mxCell id="15" value="menampilkan landing&#xa;page" style="" parent="3" vertex="1">
          <mxGeometry x="55.5" y="52" width="124.5" height="50" as="geometry" />
        </mxCell>
        <mxCell id="18" value="home page" style="" parent="3" vertex="1">
          <mxGeometry x="62.75" y="332" width="110" height="50" as="geometry" />
        </mxCell>
        <mxCell id="t7t6zWDUxTfeYxyZlF2c-43" value="&lt;font style=&quot;font-size: 10px;&quot;&gt;cek username and password&lt;/font&gt;" style="rhombus;whiteSpace=wrap;html=1;" parent="3" vertex="1">
          <mxGeometry x="77.25" y="192" width="81" height="80" as="geometry" />
        </mxCell>
        <mxCell id="t7t6zWDUxTfeYxyZlF2c-49" value="" style="endArrow=classic;html=1;rounded=0;entryX=0.5;entryY=1;entryDx=0;entryDy=0;exitX=0.5;exitY=0;exitDx=0;exitDy=0;" parent="3" source="t7t6zWDUxTfeYxyZlF2c-43" target="15" edge="1">
          <mxGeometry relative="1" as="geometry">
            <mxPoint x="-14.5" y="252" as="sourcePoint" />
            <mxPoint x="85.5" y="252" as="targetPoint" />
          </mxGeometry>
        </mxCell>
        <mxCell id="t7t6zWDUxTfeYxyZlF2c-50" value="salah" style="edgeLabel;resizable=0;html=1;;align=center;verticalAlign=middle;" parent="t7t6zWDUxTfeYxyZlF2c-49" connectable="0" vertex="1">
          <mxGeometry relative="1" as="geometry" />
        </mxCell>
        <mxCell id="t7t6zWDUxTfeYxyZlF2c-52" value="" style="endArrow=classic;html=1;rounded=0;exitX=0.5;exitY=1;exitDx=0;exitDy=0;" parent="3" source="t7t6zWDUxTfeYxyZlF2c-43" edge="1">
          <mxGeometry relative="1" as="geometry">
            <mxPoint x="45.5" y="282" as="sourcePoint" />
            <mxPoint x="117.5" y="332" as="targetPoint" />
          </mxGeometry>
        </mxCell>
        <mxCell id="t7t6zWDUxTfeYxyZlF2c-53" value="benar" style="edgeLabel;resizable=0;html=1;;align=center;verticalAlign=middle;" parent="t7t6zWDUxTfeYxyZlF2c-52" connectable="0" vertex="1">
          <mxGeometry relative="1" as="geometry" />
        </mxCell>
        <mxCell id="t7t6zWDUxTfeYxyZlF2c-62" value="pindah ke halaman pembayaran" style="rounded=0;whiteSpace=wrap;html=1;" parent="3" vertex="1">
          <mxGeometry x="62.75" y="442" width="120" height="60" as="geometry" />
        </mxCell>
        <mxCell id="t7t6zWDUxTfeYxyZlF2c-76" value="sistem konfirmasi&lt;div&gt;pembayaran barang&lt;/div&gt;" style="rounded=0;whiteSpace=wrap;html=1;" parent="3" vertex="1">
          <mxGeometry x="62.75" y="586" width="120" height="60" as="geometry" />
        </mxCell>
        <mxCell id="4" value="Thread 3" style="swimlane;whiteSpace=wrap" parent="1" vertex="1">
          <mxGeometry x="724" y="128" width="280" height="782" as="geometry" />
        </mxCell>
        <mxCell id="t7t6zWDUxTfeYxyZlF2c-79" value="pembayaran berhasil" style="rounded=0;whiteSpace=wrap;html=1;" parent="4" vertex="1">
          <mxGeometry x="80" y="594" width="120" height="44" as="geometry" />
        </mxCell>
        <mxCell id="t7t6zWDUxTfeYxyZlF2c-41" value="" style="endArrow=classic;html=1;rounded=0;exitX=0.85;exitY=0.5;exitDx=0;exitDy=0;exitPerimeter=0;entryX=-0.008;entryY=0.313;entryDx=0;entryDy=0;entryPerimeter=0;" parent="1" source="5" target="15" edge="1">
          <mxGeometry width="50" height="50" relative="1" as="geometry">
            <mxPoint x="300" y="190" as="sourcePoint" />
            <mxPoint x="500" y="190" as="targetPoint" />
            <Array as="points">
              <mxPoint x="400" y="195" />
            </Array>
          </mxGeometry>
        </mxCell>
        <mxCell id="t7t6zWDUxTfeYxyZlF2c-44" value="" style="endArrow=classic;html=1;rounded=0;exitX=0.5;exitY=1;exitDx=0;exitDy=0;entryX=0;entryY=0.5;entryDx=0;entryDy=0;" parent="1" source="7" target="t7t6zWDUxTfeYxyZlF2c-43" edge="1">
          <mxGeometry width="50" height="50" relative="1" as="geometry">
            <mxPoint x="390" y="380" as="sourcePoint" />
            <mxPoint x="440" y="330" as="targetPoint" />
            <Array as="points">
              <mxPoint x="280" y="360" />
            </Array>
          </mxGeometry>
        </mxCell>
        <mxCell id="t7t6zWDUxTfeYxyZlF2c-56" value="" style="endArrow=classic;html=1;rounded=0;entryX=1;entryY=0.5;entryDx=0;entryDy=0;" parent="1" target="t7t6zWDUxTfeYxyZlF2c-57" edge="1">
          <mxGeometry width="50" height="50" relative="1" as="geometry">
            <mxPoint x="507" y="485" as="sourcePoint" />
            <mxPoint x="410" y="485" as="targetPoint" />
          </mxGeometry>
        </mxCell>
        <mxCell id="t7t6zWDUxTfeYxyZlF2c-63" style="edgeStyle=orthogonalEdgeStyle;rounded=0;orthogonalLoop=1;jettySize=auto;html=1;entryX=-0.065;entryY=0.5;entryDx=0;entryDy=0;entryPerimeter=0;" parent="1" source="t7t6zWDUxTfeYxyZlF2c-58" target="t7t6zWDUxTfeYxyZlF2c-62" edge="1">
          <mxGeometry relative="1" as="geometry" />
        </mxCell>
        <mxCell id="t7t6zWDUxTfeYxyZlF2c-68" value="" style="endArrow=classic;html=1;rounded=0;exitX=0.5;exitY=1;exitDx=0;exitDy=0;entryX=1;entryY=0.5;entryDx=0;entryDy=0;" parent="1" source="t7t6zWDUxTfeYxyZlF2c-62" target="t7t6zWDUxTfeYxyZlF2c-61" edge="1">
          <mxGeometry width="50" height="50" relative="1" as="geometry">
            <mxPoint x="430" y="660" as="sourcePoint" />
            <mxPoint x="480" y="610" as="targetPoint" />
            <Array as="points">
              <mxPoint x="567" y="664" />
            </Array>
          </mxGeometry>
        </mxCell>
        <mxCell id="t7t6zWDUxTfeYxyZlF2c-85" value="" style="endArrow=classic;html=1;rounded=0;entryX=1;entryY=0.5;entryDx=0;entryDy=0;exitX=0.55;exitY=1.045;exitDx=0;exitDy=0;exitPerimeter=0;" parent="1" source="t7t6zWDUxTfeYxyZlF2c-79" target="t7t6zWDUxTfeYxyZlF2c-81" edge="1">
          <mxGeometry width="50" height="50" relative="1" as="geometry">
            <mxPoint x="590" y="750" as="sourcePoint" />
            <mxPoint x="640" y="700" as="targetPoint" />
            <Array as="points">
              <mxPoint x="870" y="820" />
            </Array>
          </mxGeometry>
        </mxCell>
        <mxCell id="t7t6zWDUxTfeYxyZlF2c-86" value="" style="endArrow=classic;html=1;rounded=0;entryX=0;entryY=0.5;entryDx=0;entryDy=0;exitX=1;exitY=0.5;exitDx=0;exitDy=0;" parent="1" source="t7t6zWDUxTfeYxyZlF2c-76" target="t7t6zWDUxTfeYxyZlF2c-79" edge="1">
          <mxGeometry width="50" height="50" relative="1" as="geometry">
            <mxPoint x="590" y="750" as="sourcePoint" />
            <mxPoint x="640" y="700" as="targetPoint" />
          </mxGeometry>
        </mxCell>
        <mxCell id="t7t6zWDUxTfeYxyZlF2c-87" value="" style="endArrow=classic;html=1;rounded=0;exitX=1;exitY=0.5;exitDx=0;exitDy=0;entryX=0;entryY=0.5;entryDx=0;entryDy=0;" parent="1" source="t7t6zWDUxTfeYxyZlF2c-71" target="t7t6zWDUxTfeYxyZlF2c-76" edge="1">
          <mxGeometry width="50" height="50" relative="1" as="geometry">
            <mxPoint x="590" y="750" as="sourcePoint" />
            <mxPoint x="640" y="700" as="targetPoint" />
          </mxGeometry>
        </mxCell>
      </root>
    </mxGraphModel>
  </diagram>
</mxfile>
